<svg width="15.000000" height="13.000000" viewBox="0 0 15 13" fill="none" xmlns="http://www.w3.org/2000/svg" xmlns:xlink="http://www.w3.org/1999/xlink">
	<desc>
			Created with Pixso.
	</desc>
	<defs/>
	<path id="Vector" d="M6.89 3.78L8.89 5.78L8.9 5.68C8.9 4.62 8.05 3.77 6.99 3.77L6.89 3.78Z" fill="#ABABAB" fill-opacity="1.000000" fill-rule="nonzero"/>
	<path id="Vector" d="M6.99 2.5C8.75 2.5 10.17 3.92 10.17 5.68C10.17 6.09 10.09 6.48 9.95 6.84L11.81 8.7C12.77 7.9 13.53 6.86 14 5.68C12.89 2.88 10.18 0.91 6.99 0.91C6.1 0.91 5.25 1.06 4.46 1.35L5.83 2.72C6.19 2.58 6.58 2.5 6.99 2.5Z" fill="#ABABAB" fill-opacity="1.000000" fill-rule="nonzero"/>
	<path id="Vector" d="M0.63 0.76L2.08 2.21L2.37 2.5C1.32 3.32 0.49 2.73 0 4C1.1 6.79 3.81 9 7 9C7.98 9 8.92 10.26 9.78 9.91L10.05 10.18L11.91 12.04L12.72 11.23L1.44 -0.05L0.63 0.76ZM4.15 4.28L5.13 5.26C5.1 5.4 5.08 5.53 5.08 5.68C5.08 6.73 5.94 7.59 6.99 7.59C7.14 7.59 7.27 7.57 7.41 7.54L8.39 8.52C7.97 8.73 7.5 8.86 6.99 8.86C5.24 8.86 3.81 5.68 3.81 5.68C3.81 5.68 3.94 4.7 4.15 4.28Z" fill="#ABABAB" fill-opacity="1.000000" fill-rule="nonzero"/>
</svg>
