<svg width="22.000000" height="19.000000" viewBox="0 0 22 19" fill="none" xmlns="http://www.w3.org/2000/svg" xmlns:xlink="http://www.w3.org/1999/xlink">
	<desc>
			Created with Pixso.
	</desc>
	<defs>
		<clipPath id="clip37_27">
			<rect id="eye 1" width="22.000000" height="19.000000" fill="white" fill-opacity="0"/>
		</clipPath>
	</defs>
	<rect id="eye 1" width="22.000000" height="19.000000" fill="#FFFFFF" fill-opacity="0"/>
	<g clip-path="url(#clip37_27)">
		<path id="Vector" d="M21.86 9.13C21.66 8.89 16.98 3.44 10.99 3.44C5.01 3.44 0.33 8.89 0.13 9.13C-0.05 9.35 -0.05 9.64 0.13 9.86C0.33 10.1 5.01 15.55 10.99 15.55C16.98 15.55 21.66 10.1 21.86 9.87C22.04 9.64 22.04 9.35 21.86 9.13ZM10.99 14.3C6.59 14.3 2.77 10.68 1.64 9.5C2.77 8.31 6.58 4.69 10.99 4.69C15.4 4.69 19.22 8.31 20.35 9.5C19.22 10.68 15.41 14.3 10.99 14.3Z" fill="#8E8E8E" fill-opacity="1.000000" fill-rule="nonzero"/>
		<path id="Vector" d="M10.99 5.74C8.6 5.74 6.64 7.42 6.64 9.5C6.64 11.57 8.6 13.25 10.99 13.25C13.39 13.25 15.35 11.57 15.35 9.5C15.35 7.42 13.39 5.74 10.99 5.74ZM10.99 12C9.4 12 8.09 10.88 8.09 9.5C8.09 8.11 9.4 6.99 10.99 6.99C12.59 6.99 13.9 8.11 13.9 9.5C13.9 10.88 12.59 12 10.99 12Z" fill="#8E8E8E" fill-opacity="1.000000" fill-rule="nonzero"/>
	</g>
</svg>
