<svg width="17.000000" height="17.000000" viewBox="0 0 17 17" fill="none" xmlns="http://www.w3.org/2000/svg" xmlns:xlink="http://www.w3.org/1999/xlink">
	<desc>
			Created with Pixso.
	</desc>
	<defs>
		<clipPath id="clip24_33">
			<rect id="padlock 1" width="17.000000" height="17.000000" fill="white" fill-opacity="0"/>
		</clipPath>
	</defs>
	<rect id="padlock 1" width="17.000000" height="17.000000" fill="#FFFFFF" fill-opacity="0"/>
	<g clip-path="url(#clip24_33)">
		<path id="Vector" d="M13 7.22L13 4.53C13.01 3.31 12.52 2.14 11.65 1.29C10.81 0.45 9.71 0 8.55 0C8.53 0 8.51 0 8.49 0C6.01 0 3.99 2.03 3.99 4.53L3.99 7.22C3.05 7.34 2.37 8.12 2.37 9.07L2.37 15.12C2.37 16.15 3.19 17 4.22 17L12.77 17C13.8 17 14.62 16.15 14.62 15.12L14.62 9.07C14.62 8.13 13.94 7.34 13 7.22ZM4.71 4.53L4.71 4.53C4.71 2.43 6.41 0.7 8.49 0.7L8.5 0.7C9.49 0.7 10.44 1.09 11.14 1.79C11.87 2.52 12.28 3.51 12.27 4.53L12.27 7.23L11.48 7.23L11.48 4.53C11.49 3.71 11.16 2.93 10.58 2.35C10.04 1.8 9.29 1.49 8.52 1.49L8.5 1.49C6.84 1.49 5.5 2.86 5.5 4.53L5.5 7.23L4.71 7.23L4.71 4.53ZM10.76 4.53L10.76 7.23L6.22 7.23L6.22 4.53C6.22 3.26 7.24 2.22 8.5 2.22L8.52 2.22C9.11 2.22 9.67 2.45 10.08 2.87C10.52 3.31 10.77 3.91 10.76 4.53ZM13.94 15.13C13.94 15.76 13.42 16.27 12.79 16.27L4.23 16.27C3.6 16.27 3.09 15.76 3.09 15.13L3.09 9.09C3.09 8.46 3.6 7.95 4.23 7.95L12.79 7.95C13.42 7.95 13.94 8.46 13.94 9.09L13.94 15.13Z" fill="#000842" fill-opacity="1.000000" fill-rule="nonzero"/>
		<path id="Vector" d="M9.74 11.89C9.58 11.33 9.07 10.95 8.49 10.95C7.78 10.95 7.19 11.53 7.19 12.25C7.19 12.83 7.57 13.34 8.13 13.5L8.13 14.5C8.13 14.7 8.29 14.87 8.49 14.87C8.69 14.87 8.85 14.7 8.85 14.5L8.85 13.5C9.54 13.3 9.94 12.58 9.74 11.89ZM8.49 12.83C8.17 12.83 7.91 12.57 7.91 12.25C7.91 11.92 8.17 11.66 8.49 11.66C8.81 11.66 9.07 11.92 9.07 12.25C9.07 12.57 8.81 12.83 8.49 12.83Z" fill="#000842" fill-opacity="1.000000" fill-rule="nonzero"/>
	</g>
</svg>
