<svg width="13.000000" height="14.000000" viewBox="0 0 13 14" fill="none" xmlns="http://www.w3.org/2000/svg" xmlns:xlink="http://www.w3.org/1999/xlink">
	<desc>
			Created with Pixso.
	</desc>
	<defs/>
	<path id="Vector" d="M12.61 10.27L10.66 8.32C9.96 7.62 8.78 7.9 8.5 8.8C8.29 9.43 7.59 9.78 6.96 9.64C5.57 9.29 3.68 7.48 3.33 6.01C3.12 5.39 3.54 4.69 4.17 4.48C5.08 4.2 5.36 3.01 4.66 2.32L2.71 0.36C2.15 -0.13 1.31 -0.13 0.82 0.36L-0.5 1.69C-1.83 3.08 -0.36 6.78 2.91 10.06C6.19 13.34 9.89 14.87 11.29 13.48L12.61 12.15C13.1 11.6 13.1 10.76 12.61 10.27Z" fill="#FFFFFF" fill-opacity="1.000000" fill-rule="nonzero"/>
</svg>
