<svg width="16.000000" height="16.000000" viewBox="0 0 16 16" fill="none" xmlns="http://www.w3.org/2000/svg" xmlns:xlink="http://www.w3.org/1999/xlink">
	<desc>
			Created with Pixso.
	</desc>
	<defs>
		<clipPath id="clip24_168">
			<rect id="user 1" width="16.000000" height="16.000000" fill="white" fill-opacity="0"/>
		</clipPath>
	</defs>
	<rect id="user 1" width="16.000000" height="16.000000" fill="#FFFFFF" fill-opacity="0"/>
	<g clip-path="url(#clip24_168)">
		<path id="Vector" d="M7.88 7.7C8.94 7.7 9.86 7.32 10.61 6.57C11.35 5.82 11.73 4.91 11.73 3.85C11.73 2.79 11.36 1.87 10.61 1.12C9.86 0.37 8.94 0 7.88 0C6.82 0 5.91 0.37 5.16 1.12C4.41 1.87 4.03 2.79 4.03 3.85C4.03 4.91 4.41 5.82 5.16 6.57C5.91 7.32 6.82 7.7 7.88 7.7ZM5.82 1.79C6.39 1.21 7.07 0.93 7.88 0.93C8.69 0.93 9.37 1.21 9.94 1.79C10.52 2.36 10.8 3.04 10.8 3.85C10.8 4.66 10.52 5.34 9.94 5.91C9.37 6.49 8.69 6.76 7.88 6.76C7.07 6.76 6.39 6.48 5.82 5.91C5.24 5.34 4.96 4.66 4.96 3.85C4.96 3.04 5.24 2.36 5.82 1.79Z" fill="#000000" fill-opacity="1.000000" fill-rule="nonzero"/>
		<path id="Vector" d="M14.62 12.3C14.6 11.99 14.56 11.65 14.49 11.29C14.43 10.93 14.35 10.58 14.25 10.27C14.14 9.95 14 9.63 13.83 9.32C13.65 9.01 13.44 8.73 13.2 8.5C12.95 8.26 12.64 8.07 12.29 7.93C11.94 7.79 11.55 7.72 11.14 7.72C10.97 7.72 10.82 7.79 10.51 7.99C10.32 8.11 10.1 8.25 9.86 8.41C9.65 8.54 9.36 8.67 9.01 8.78C8.67 8.89 8.32 8.95 7.98 8.95C7.64 8.95 7.29 8.89 6.95 8.78C6.6 8.67 6.31 8.54 6.11 8.41C5.86 8.25 5.64 8.11 5.45 7.99C5.15 7.79 4.99 7.72 4.83 7.72C4.41 7.72 4.02 7.79 3.67 7.93C3.32 8.07 3.01 8.26 2.77 8.5C2.53 8.73 2.32 9.01 2.14 9.32C1.96 9.63 1.82 9.95 1.72 10.27C1.62 10.58 1.53 10.93 1.47 11.29C1.4 11.65 1.36 11.99 1.34 12.3C1.32 12.6 1.31 12.92 1.31 13.24C1.31 14.08 1.57 14.75 2.1 15.25C2.61 15.75 3.3 15.99 4.13 15.99L11.83 15.99C12.67 15.99 13.35 15.75 13.87 15.25C14.39 14.76 14.66 14.08 14.66 13.24C14.66 12.92 14.65 12.6 14.62 12.3ZM13.22 14.57C12.88 14.9 12.43 15.06 11.83 15.06L4.13 15.06C3.54 15.06 3.08 14.9 2.74 14.57C2.41 14.26 2.25 13.82 2.25 13.24C2.25 12.94 2.26 12.65 2.27 12.36C2.29 12.08 2.33 11.78 2.39 11.45C2.45 11.13 2.52 10.83 2.61 10.56C2.69 10.29 2.81 10.04 2.95 9.79C3.09 9.55 3.24 9.34 3.41 9.18C3.57 9.03 3.78 8.9 4.02 8.8C4.24 8.72 4.48 8.67 4.75 8.66C4.79 8.68 4.85 8.71 4.94 8.77C5.13 8.9 5.36 9.04 5.6 9.2C5.88 9.38 6.23 9.54 6.66 9.67C7.1 9.81 7.54 9.89 7.98 9.89C8.42 9.89 8.87 9.81 9.3 9.67C9.73 9.54 10.09 9.38 10.36 9.2C10.61 9.04 10.83 8.9 11.02 8.77C11.12 8.71 11.18 8.68 11.21 8.66C11.48 8.67 11.73 8.72 11.95 8.8C12.19 8.9 12.39 9.03 12.55 9.18C12.72 9.34 12.88 9.55 13.01 9.79C13.15 10.04 13.27 10.29 13.35 10.56C13.44 10.83 13.51 11.13 13.57 11.45C13.63 11.78 13.67 12.09 13.69 12.36L13.69 12.36C13.71 12.65 13.72 12.94 13.72 13.24C13.72 13.82 13.56 14.26 13.22 14.57Z" fill="#000000" fill-opacity="1.000000" fill-rule="nonzero"/>
	</g>
</svg>
