<svg width="17.000000" height="12.000000" viewBox="0 0 17 12" fill="none" xmlns="http://www.w3.org/2000/svg" xmlns:xlink="http://www.w3.org/1999/xlink">
	<desc>
			Created with Pixso.
	</desc>
	<defs/>
	<path id="Vector" d="M1.49 -0.33L15.5 -0.33C16.32 -0.33 17 0.34 17 1.17L17 9.82C17 10.65 16.32 11.32 15.5 11.32L1.49 11.32C0.67 11.32 0 10.65 0 9.82L0 1.17C0 0.34 0.67 -0.33 1.49 -0.33ZM1.68 0.67L1.88 0.83L7.9 5.85C8.25 6.13 8.74 6.13 9.09 5.85L15.11 0.83L15.31 0.67L1.68 0.67ZM16 1.39L11.1 5.47L16 8.73L16 1.39ZM1.49 10.32L15.5 10.32C15.74 10.32 15.94 10.15 15.99 9.92L10.3 6.14L9.73 6.61C9.37 6.91 8.93 7.06 8.49 7.06C8.06 7.06 7.62 6.91 7.26 6.61L6.69 6.14L1 9.92C1.05 10.15 1.25 10.32 1.49 10.32ZM0.99 8.73L5.89 5.47L0.99 1.39L0.99 8.73Z" fill="#000842" fill-opacity="1.000000" fill-rule="nonzero"/>
</svg>
